<svg width="62" height="57" viewBox="0 0 62 57" fill="none" xmlns="http://www.w3.org/2000/svg">
<g opacity="0.3">
<g clip-path="url(#clip0_374_167)">
<path d="M18.5 47H44.5C45.327 47 46 46.327 46 45.5V20.5C46 19.673 45.327 19 44.5 19H18.5C17.673 19 17 19.673 17 20.5V45.5C17 46.327 17.673 47 18.5 47ZM18 20.5C18 20.3674 18.0527 20.2402 18.1464 20.1464C18.2402 20.0527 18.3674 20 18.5 20H44.5C44.6326 20 44.7598 20.0527 44.8536 20.1464C44.9473 20.2402 45 20.3674 45 20.5V45.5C45 45.6326 44.9473 45.7598 44.8536 45.8536C44.7598 45.9473 44.6326 46 44.5 46H18.5C18.3674 46 18.2402 45.9473 18.1464 45.8536C18.0527 45.7598 18 45.6326 18 45.5V20.5Z" fill="#FFFAFA"/>
<path d="M35 30C36.103 30 37 29.103 37 28C37 26.897 36.103 26 35 26C33.897 26 33 26.897 33 28C33 29.103 33.897 30 35 30ZM35 27C35.1981 26.9998 35.3917 27.0584 35.5565 27.1683C35.7213 27.2782 35.8497 27.4345 35.9256 27.6175C36.0015 27.8004 36.0214 28.0018 35.9828 28.196C35.9442 28.3903 35.8489 28.5688 35.7088 28.7088C35.5688 28.8489 35.3903 28.9442 35.196 28.9828C35.0018 29.0214 34.8004 29.0015 34.6175 28.9256C34.4345 28.8497 34.2782 28.7213 34.1683 28.5565C34.0584 28.3917 33.9998 28.1981 34 28C34 27.449 34.448 27 35 27Z" fill="#FFFAFA"/>
<path d="M20.5 42H42.5C42.6326 42 42.7598 41.9473 42.8536 41.8536C42.9473 41.7598 43 41.6326 43 41.5V22.5C43 22.3674 42.9473 22.2402 42.8536 22.1464C42.7598 22.0527 42.6326 22 42.5 22H20.5C20.3674 22 20.2402 22.0527 20.1464 22.1464C20.0527 22.2402 20 22.3674 20 22.5V41.5C20 41.6326 20.0527 41.7598 20.1464 41.8536C20.2402 41.9473 20.3674 42 20.5 42ZM21 41V36.362C21.022 36.346 21.047 36.337 21.067 36.317L26.183 31.201C26.314 31.076 26.488 31.0063 26.669 31.0063C26.85 31.0063 27.024 31.076 27.155 31.201L34.676 38.722C34.7681 38.8149 34.8931 38.8678 35.0239 38.8693C35.1547 38.8708 35.2808 38.8207 35.375 38.73L39.241 35.058C39.3047 34.9939 39.3804 34.9431 39.4638 34.9084C39.5472 34.8737 39.6367 34.8559 39.727 34.856C39.911 34.856 40.082 34.928 40.191 35.034L42 37.093V41H21ZM42 23V35.581L40.919 34.353C40.7632 34.1957 40.5777 34.0709 40.3732 33.9859C40.1687 33.9009 39.9494 33.8574 39.728 33.858H39.727C39.5072 33.857 39.2894 33.8995 39.0861 33.9829C38.8827 34.0663 38.6978 34.189 38.542 34.344L35.038 37.672L27.862 30.495C27.223 29.857 26.113 29.858 25.476 30.495L21 34.971V23H42Z" fill="#FFFAFA"/>
<path d="M21.5 48.083C21.3674 48.083 21.2402 48.1357 21.1464 48.2294C21.0527 48.3232 21 48.4504 21 48.583V49.5C21 50.327 21.673 51 22.5 51H48.5C49.327 51 50 50.327 50 49.5V23.5C50 22.673 49.327 22 48.5 22H47.583C47.4504 22 47.3232 22.0527 47.2294 22.1464C47.1357 22.2402 47.083 22.3674 47.083 22.5C47.083 22.6326 47.1357 22.7598 47.2294 22.8536C47.3232 22.9473 47.4504 23 47.583 23H48.5C48.6326 23 48.7598 23.0527 48.8536 23.1464C48.9473 23.2402 49 23.3674 49 23.5V49.5C49 49.6326 48.9473 49.7598 48.8536 49.8536C48.7598 49.9473 48.6326 50 48.5 50H22.5C22.3674 50 22.2402 49.9473 22.1464 49.8536C22.0527 49.7598 22 49.6326 22 49.5V48.583C22 48.4504 21.9473 48.3232 21.8536 48.2294C21.7598 48.1357 21.6326 48.083 21.5 48.083Z" fill="#FFFAFA"/>
</g>
</g>
<path d="M1 52.25V4.75C1 2.67893 2.67893 1 4.75 1H21.1824C22.6028 1 23.9013 1.80251 24.5365 3.07295L27.4635 8.92705C28.0987 10.1975 29.3972 11 30.8176 11H57.25C59.3211 11 61 12.6789 61 14.75V52.25C61 54.3211 59.3211 56 57.25 56H4.75C2.67893 56 1 54.3211 1 52.25Z" fill="white" fill-opacity="0.04"/>
<path d="M0.5 4.75V52.25C0.5 54.5972 2.40279 56.5 4.75 56.5H57.25C59.5972 56.5 61.5 54.5972 61.5 52.25V14.75C61.5 12.4028 59.5972 10.5 57.25 10.5H30.8176C29.5866 10.5 28.4613 9.80449 27.9107 8.70344L24.9837 2.84934C24.2638 1.40951 22.7922 0.5 21.1824 0.5H4.75C2.40279 0.5 0.5 2.40279 0.5 4.75Z" stroke="url(#paint0_linear_374_167)" stroke-opacity="0.8"/>
<defs>
<linearGradient id="paint0_linear_374_167" x1="-21.5" y1="0.999999" x2="99.7441" y2="77.6094" gradientUnits="userSpaceOnUse">
<stop stop-color="white"/>
<stop offset="1" stop-color="white" stop-opacity="0"/>
</linearGradient>
<clipPath id="clip0_374_167">
<rect x="19" y="21" width="25" height="23" rx="2" fill="white"/>
</clipPath>
</defs>
</svg>
