<svg width="166" height="153" viewBox="0 0 166 153" fill="none" xmlns="http://www.w3.org/2000/svg">
<path d="M3 140V13.3335C3 7.81065 7.47715 3.3335 13 3.3335H56.8197C60.6074 3.3335 64.07 5.47351 65.7639 8.86135L73.5694 24.4723C75.2633 27.8601 78.7259 30.0002 82.5137 30.0002H153C158.523 30.0002 163 34.4773 163 40.0002V140C163 145.523 158.523 150 153 150H13C7.47715 150 3 145.523 3 140Z" fill="white" fill-opacity="0.04"/>
<path d="M1.66667 13.3335V140C1.66667 146.259 6.74077 151.333 13 151.333H153C159.259 151.333 164.333 146.259 164.333 140V40.0002C164.333 33.7409 159.259 28.6668 153 28.6668H82.5137C79.231 28.6668 76.23 26.8121 74.762 23.876L66.9565 8.26507C65.0367 4.42552 61.1124 2.00016 56.8197 2.00016H13C6.74077 2.00016 1.66667 7.07427 1.66667 13.3335Z" stroke="url(#paint0_linear_357_121)" stroke-opacity="0.8" stroke-width="2.66667"/>
<defs>
<linearGradient id="paint0_linear_357_121" x1="-57" y1="3.33349" x2="266.318" y2="207.625" gradientUnits="userSpaceOnUse">
<stop stop-color="white"/>
<stop offset="1" stop-color="white" stop-opacity="0"/>
</linearGradient>
</defs>
</svg>
