<svg width="62" height="57" viewBox="0 0 62 57" fill="none" xmlns="http://www.w3.org/2000/svg">
<path d="M1 52.25V4.75C1 2.67893 2.67893 1 4.75 1H21.1824C22.6028 1 23.9013 1.80251 24.5365 3.07295L27.4635 8.92705C28.0987 10.1975 29.3972 11 30.8176 11H57.25C59.3211 11 61 12.6789 61 14.75V52.25C61 54.3211 59.3211 56 57.25 56H4.75C2.67893 56 1 54.3211 1 52.25Z" fill="white" fill-opacity="0.04"/>
<path d="M0.5 4.75V52.25C0.5 54.5972 2.40279 56.5 4.75 56.5H57.25C59.5972 56.5 61.5 54.5972 61.5 52.25V14.75C61.5 12.4028 59.5972 10.5 57.25 10.5H30.8176C29.5866 10.5 28.4613 9.80449 27.9107 8.70344L24.9837 2.84934C24.2638 1.40951 22.7922 0.5 21.1824 0.5H4.75C2.40279 0.5 0.5 2.40279 0.5 4.75Z" stroke="url(#paint0_linear_269_151)" stroke-opacity="0.8"/>
<defs>
<linearGradient id="paint0_linear_269_151" x1="-21.5" y1="0.999999" x2="99.7441" y2="77.6094" gradientUnits="userSpaceOnUse">
<stop stop-color="white"/>
<stop offset="1" stop-color="white" stop-opacity="0"/>
</linearGradient>
</defs>
</svg>
