<svg width="177" height="150" viewBox="0 0 177 150" fill="none" xmlns="http://www.w3.org/2000/svg">
<path d="M0.333984 10.3335C0.333984 4.81064 4.81114 0.333496 10.334 0.333496H166.334C171.857 0.333496 176.334 4.81065 176.334 10.3335V105.671C176.334 108.57 175.075 111.327 172.884 113.227L133.67 147.223C131.852 148.799 129.526 149.667 127.12 149.667H10.334C4.81113 149.667 0.333984 145.19 0.333984 139.667V10.3335Z" fill="#00FFD1" fill-opacity="0.12"/>
<path d="M1.66732 10.3335C1.66732 5.54702 5.54751 1.66683 10.334 1.66683H166.334C171.12 1.66683 175.001 5.54703 175.001 10.3335V105.671C175.001 108.184 173.91 110.573 172.011 112.219L132.797 146.215C131.221 147.581 129.205 148.333 127.12 148.333H10.334C5.54751 148.333 1.66732 144.453 1.66732 139.667V10.3335Z" stroke="url(#paint0_linear_323_373)" stroke-opacity="0.8" stroke-width="2.66667"/>
<path d="M40.334 43L71.6229 72.5385L40.334 99.6154M83.0007 107H125.667" stroke="url(#paint1_linear_323_373)" stroke-width="8" stroke-linecap="square"/>
<defs>
<linearGradient id="paint0_linear_323_373" x1="-65.666" y1="0.333493" x2="273.792" y2="232.059" gradientUnits="userSpaceOnUse">
<stop stop-color="white"/>
<stop offset="1" stop-color="white" stop-opacity="0"/>
</linearGradient>
<linearGradient id="paint1_linear_323_373" x1="8.33399" y1="43" x2="338.908" y2="278.442" gradientUnits="userSpaceOnUse">
<stop stop-color="white"/>
<stop offset="1" stop-color="white" stop-opacity="0"/>
</linearGradient>
</defs>
</svg>
